<svg xmlns="http://www.w3.org/2000/svg" xmlns:xlink="http://www.w3.org/1999/xlink" zoomAndPan="magnify" preserveAspectRatio="xMidYMid meet" version="1.0" viewBox="59.88 141.09 269.62 87.45"><defs><g/></defs><g fill="#000000" fill-opacity="1"><g transform="translate(58.177952, 226.386238)"><g><path d="M 9.53125 -54.359375 L 9.53125 -74.609375 L 28.296875 -74.609375 L 28.296875 -54.359375 L 39.734375 -54.359375 L 39.734375 -40.0625 L 28.296875 -40.0625 L 28.296875 -22.78125 C 28.296875 -17.769531 29.707031 -15.265625 32.53125 -15.265625 C 33.238281 -15.265625 33.976562 -15.40625 34.75 -15.6875 C 35.53125 -15.96875 36.132812 -16.25 36.5625 -16.53125 L 37.1875 -16.953125 L 41.859375 -1.796875 C 37.828125 0.460938 33.234375 1.59375 28.078125 1.59375 C 24.546875 1.59375 21.507812 0.972656 18.96875 -0.265625 C 16.425781 -1.503906 14.5 -3.164062 13.1875 -5.25 C 11.882812 -7.332031 10.945312 -9.519531 10.375 -11.8125 C 9.8125 -14.113281 9.53125 -16.570312 9.53125 -19.1875 L 9.53125 -40.0625 L 1.703125 -40.0625 L 1.703125 -54.359375 Z M 9.53125 -54.359375 "/></g></g></g><g fill="#000000" fill-opacity="1"><g transform="translate(94.734692, 226.386238)"><g><path d="M 11.5 -6.453125 C 5.457031 -11.828125 2.4375 -18.71875 2.4375 -27.125 C 2.4375 -35.53125 5.578125 -42.4375 11.859375 -47.84375 C 18.148438 -53.25 25.925781 -55.953125 35.1875 -55.953125 C 44.300781 -55.953125 51.984375 -53.226562 58.234375 -47.78125 C 64.484375 -42.34375 67.609375 -35.457031 67.609375 -27.125 C 67.609375 -18.789062 64.550781 -11.921875 58.4375 -6.515625 C 52.332031 -1.109375 44.582031 1.59375 35.1875 1.59375 C 25.4375 1.59375 17.539062 -1.085938 11.5 -6.453125 Z M 26.015625 -36.34375 C 23.578125 -33.945312 22.359375 -30.875 22.359375 -27.125 C 22.359375 -23.382812 23.523438 -20.328125 25.859375 -17.953125 C 28.191406 -15.585938 31.265625 -14.40625 35.078125 -14.40625 C 38.753906 -14.40625 41.773438 -15.609375 44.140625 -18.015625 C 46.503906 -20.421875 47.6875 -23.457031 47.6875 -27.125 C 47.6875 -30.875 46.46875 -33.945312 44.03125 -36.34375 C 41.59375 -38.75 38.609375 -39.953125 35.078125 -39.953125 C 31.472656 -39.953125 28.453125 -38.75 26.015625 -36.34375 Z M 26.015625 -36.34375 "/></g></g></g><g fill="#000000" fill-opacity="1"><g transform="translate(159.477195, 226.386238)"><g><path d="M 6.359375 -38.78125 L 40.484375 -38.78125 L 40.484375 -22.578125 L 6.359375 -22.578125 Z M 6.359375 -38.78125 "/></g></g></g><g fill="#00bf63" fill-opacity="1"><g transform="translate(201.354966, 224.624985)"><g><path d="M 61.265625 -77.375 C 61.410156 -75.332031 61.515625 -73.335938 61.578125 -71.390625 C 61.648438 -69.441406 61.6875 -67.445312 61.6875 -65.40625 C 61.6875 -61.164062 61.5625 -56.90625 61.3125 -52.625 C 61.070312 -48.351562 60.773438 -44.023438 60.421875 -39.640625 C 60.066406 -35.265625 59.710938 -30.78125 59.359375 -26.1875 C 59.003906 -21.59375 58.6875 -16.820312 58.40625 -11.875 C 58.40625 -11.09375 58.382812 -10.296875 58.34375 -9.484375 C 58.3125 -8.671875 58.226562 -7.769531 58.09375 -6.78125 L 58.09375 -5.515625 C 58.09375 -5.296875 58.019531 -5.007812 57.875 -4.65625 C 57.726562 -4.3125 57.585938 -4.066406 57.453125 -3.921875 C 56.535156 -2.859375 55.703125 -2.0625 54.953125 -1.53125 C 54.210938 -1 53.523438 -0.609375 52.890625 -0.359375 C 52.253906 -0.117188 51.65625 0.015625 51.09375 0.046875 C 50.53125 0.0859375 49.960938 0.144531 49.390625 0.21875 L 50.03125 0.21875 C 50.238281 0.21875 50.644531 0.179688 51.25 0.109375 C 51.851562 0.0351562 52.523438 -0.0859375 53.265625 -0.265625 C 54.003906 -0.441406 54.707031 -0.6875 55.375 -1 C 56.050781 -1.320312 56.53125 -1.765625 56.8125 -2.328125 L 57.765625 -4.234375 C 58.191406 -5.015625 58.457031 -5.847656 58.5625 -6.734375 C 58.664062 -7.617188 58.734375 -8.5 58.765625 -9.375 C 58.804688 -10.257812 58.828125 -11.125 58.828125 -11.96875 C 58.828125 -12.820312 58.898438 -13.640625 59.046875 -14.421875 C 59.253906 -18.867188 59.550781 -23.316406 59.9375 -27.765625 C 60.332031 -32.222656 60.707031 -36.710938 61.0625 -41.234375 C 61.414062 -45.753906 61.734375 -50.328125 62.015625 -54.953125 C 62.296875 -59.585938 62.4375 -64.304688 62.4375 -69.109375 C 62.4375 -70.597656 62.414062 -72.03125 62.375 -73.40625 C 62.34375 -74.78125 62.289062 -76.101562 62.21875 -77.375 C 62.4375 -77.09375 62.664062 -76.648438 62.90625 -76.046875 C 63.15625 -75.453125 63.351562 -74.519531 63.5 -73.25 C 63.851562 -72.46875 64.0625 -71.617188 64.125 -70.703125 C 64.195312 -69.785156 64.304688 -68.832031 64.453125 -67.84375 C 64.453125 -63.03125 64.273438 -58.378906 63.921875 -53.890625 C 63.566406 -49.410156 63.210938 -44.941406 62.859375 -40.484375 L 61.90625 -40.171875 L 60.953125 -22.046875 C 60.953125 -16.960938 60.722656 -12.773438 60.265625 -9.484375 C 59.804688 -6.203125 59.398438 -4.03125 59.046875 -2.96875 L 59.046875 -2.65625 C 57.984375 -1.59375 57.078125 -0.796875 56.328125 -0.265625 C 55.585938 0.265625 54.898438 0.671875 54.265625 0.953125 C 53.628906 1.234375 53.046875 1.390625 52.515625 1.421875 C 51.992188 1.460938 51.445312 1.484375 50.875 1.484375 L 44.09375 1.484375 C 42.1875 1.273438 40.132812 1.1875 37.9375 1.21875 C 35.75 1.25 33.453125 1.015625 31.046875 0.515625 C 28.648438 0.0234375 26.195312 -0.992188 23.6875 -2.546875 C 21.175781 -4.097656 18.648438 -6.570312 16.109375 -9.96875 C 16.109375 -9.820312 16.070312 -9.710938 16 -9.640625 C 15.9375 -9.578125 15.867188 -9.472656 15.796875 -9.328125 C 18.128906 -6.148438 20.9375 -3.535156 24.21875 -1.484375 C 27.507812 0.566406 31.0625 1.769531 34.875 2.125 L 43.78125 2.125 C 44.625 2.257812 45.488281 2.34375 46.375 2.375 C 47.257812 2.414062 48.234375 2.4375 49.296875 2.4375 C 50.347656 2.4375 51.738281 2.296875 53.46875 2.015625 C 55.207031 1.734375 56.851562 0.816406 58.40625 -0.734375 C 58.6875 -1.085938 58.878906 -1.351562 58.984375 -1.53125 C 59.085938 -1.707031 59.210938 -1.972656 59.359375 -2.328125 L 59.671875 -2.96875 C 60.023438 -3.601562 60.289062 -4.253906 60.46875 -4.921875 C 60.644531 -5.597656 60.804688 -6.253906 60.953125 -6.890625 C 60.953125 -6.109375 60.894531 -5.4375 60.78125 -4.875 C 60.675781 -4.3125 60.414062 -3.460938 60 -2.328125 L 59.671875 -2.015625 L 58.40625 -0.109375 C 57.769531 0.523438 57.0625 1.019531 56.28125 1.375 C 55.507812 1.726562 54.769531 1.992188 54.0625 2.171875 C 53.351562 2.347656 52.695312 2.472656 52.09375 2.546875 C 51.5 2.617188 51.0625 2.6875 50.78125 2.75 L 47.28125 2.75 C 46.351562 2.75 45.585938 2.734375 44.984375 2.703125 C 44.390625 2.671875 43.929688 2.632812 43.609375 2.59375 C 43.296875 2.5625 43.035156 2.507812 42.828125 2.4375 L 39.640625 2.4375 C 39.003906 2.4375 38.367188 2.453125 37.734375 2.484375 C 37.097656 2.523438 36.425781 2.546875 35.71875 2.546875 C 32.394531 2.546875 29.160156 1.75 26.015625 0.15625 C 22.878906 -1.425781 19.984375 -3.664062 17.328125 -6.5625 C 14.679688 -9.46875 12.332031 -12.898438 10.28125 -16.859375 C 8.226562 -20.816406 6.675781 -25.195312 5.625 -30 C 5.625 -30.769531 5.566406 -31.507812 5.453125 -32.21875 C 5.347656 -32.925781 5.296875 -33.671875 5.296875 -34.453125 C 5.296875 -37.066406 5.703125 -39.734375 6.515625 -42.453125 C 7.328125 -45.171875 8.789062 -47.625 10.90625 -49.8125 C 13.03125 -52.007812 15.894531 -53.796875 19.5 -55.171875 C 23.101562 -56.546875 27.660156 -57.234375 33.171875 -57.234375 C 35.722656 -57.234375 38.195312 -57.179688 40.59375 -57.078125 C 43 -56.972656 45.4375 -56.847656 47.90625 -56.703125 C 47.625 -56.492188 47.484375 -56.25 47.484375 -55.96875 C 47.484375 -55.613281 47.550781 -55.3125 47.6875 -55.0625 C 47.832031 -54.820312 47.90625 -54.554688 47.90625 -54.265625 C 47.90625 -53.910156 47.640625 -53.609375 47.109375 -53.359375 C 46.585938 -53.117188 45.476562 -53 43.78125 -53 C 43.21875 -53 42.5625 -53.015625 41.8125 -53.046875 C 41.070312 -53.085938 40.242188 -53.144531 39.328125 -53.21875 L 39.328125 -52.265625 C 42.710938 -51.765625 45.445312 -51.109375 47.53125 -50.296875 C 49.625 -49.484375 50.914062 -48.757812 51.40625 -48.125 L 51.625 -47.90625 L 52.046875 -52.578125 C 52.253906 -54.484375 52.359375 -56.640625 52.359375 -59.046875 C 52.359375 -61.515625 52.285156 -63.945312 52.140625 -66.34375 C 52.003906 -68.75 51.9375 -70.625 51.9375 -71.96875 C 51.9375 -73.664062 52.039062 -74.796875 52.25 -75.359375 C 52.46875 -75.929688 52.753906 -76.21875 53.109375 -76.21875 C 53.390625 -76.21875 53.617188 -75.613281 53.796875 -74.40625 C 53.972656 -73.207031 54.113281 -71.847656 54.21875 -70.328125 C 54.320312 -68.804688 54.375 -67.304688 54.375 -65.828125 L 54.375 -62.75 C 54.375 -60.695312 54.335938 -58.628906 54.265625 -56.546875 C 54.203125 -54.460938 54.097656 -52.394531 53.953125 -50.34375 C 54.160156 -53.03125 54.335938 -55.660156 54.484375 -58.234375 C 54.628906 -60.816406 54.703125 -63.453125 54.703125 -66.140625 C 54.703125 -67.765625 54.664062 -69.375 54.59375 -70.96875 C 54.519531 -72.5625 54.410156 -74.171875 54.265625 -75.796875 C 54.691406 -75.367188 55.007812 -75.15625 55.21875 -75.15625 C 55.507812 -75.15625 55.722656 -75.367188 55.859375 -75.796875 C 55.785156 -76.359375 55.71875 -76.957031 55.65625 -77.59375 C 55.582031 -78.15625 55.546875 -78.71875 55.546875 -79.28125 L 55.546875 -80.875 C 55.898438 -81.726562 56.359375 -82.382812 56.921875 -82.84375 C 57.484375 -83.300781 57.976562 -83.53125 58.40625 -83.53125 C 59.601562 -83.53125 60.664062 -82.222656 61.59375 -79.609375 Z M 44.09375 -45.578125 C 41.757812 -45.441406 39.125 -45.300781 36.1875 -45.15625 C 33.257812 -45.007812 30.488281 -44.632812 27.875 -44.03125 C 25.257812 -43.4375 23.015625 -42.535156 21.140625 -41.328125 C 19.273438 -40.128906 18.234375 -38.472656 18.015625 -36.359375 C 18.015625 -34.023438 18.507812 -31.410156 19.5 -28.515625 C 20.488281 -25.617188 21.796875 -22.878906 23.421875 -20.296875 C 25.046875 -17.722656 26.898438 -15.515625 28.984375 -13.671875 C 31.078125 -11.835938 33.253906 -10.8125 35.515625 -10.59375 L 41.546875 -10.59375 C 41.898438 -10.59375 42.164062 -10.578125 42.34375 -10.546875 C 42.519531 -10.515625 42.785156 -10.425781 43.140625 -10.28125 L 45.6875 -10.28125 C 46.75 -10.070312 47.804688 -9.96875 48.859375 -9.96875 C 48.859375 -15.90625 49.125 -22 49.65625 -28.25 C 50.1875 -34.5 50.769531 -40.628906 51.40625 -46.640625 C 50.488281 -45.929688 48.050781 -45.578125 44.09375 -45.578125 Z M 51.734375 -23.640625 C 51.734375 -22.859375 51.675781 -22.0625 51.5625 -21.25 C 51.457031 -20.4375 51.40625 -19.535156 51.40625 -18.546875 C 52.1875 -22.503906 52.644531 -26.671875 52.78125 -31.046875 C 52.925781 -35.429688 53.101562 -39.640625 53.3125 -43.671875 C 52.957031 -40.273438 52.691406 -36.929688 52.515625 -33.640625 C 52.347656 -30.359375 52.085938 -27.023438 51.734375 -23.640625 Z M 60.953125 -12.1875 C 60.953125 -12.96875 60.984375 -13.765625 61.046875 -14.578125 C 61.117188 -15.390625 61.226562 -16.253906 61.375 -17.171875 C 61.300781 -15.046875 61.265625 -13.046875 61.265625 -11.171875 C 61.265625 -9.304688 61.160156 -7.984375 60.953125 -7.203125 C 60.953125 -7.554688 60.96875 -7.890625 61 -8.203125 C 61.039062 -8.523438 61.0625 -8.863281 61.0625 -9.21875 C 61.0625 -9.78125 61.039062 -10.304688 61 -10.796875 C 60.96875 -11.296875 60.953125 -11.757812 60.953125 -12.1875 Z M 62.546875 -29.359375 C 62.398438 -29.003906 62.289062 -28.597656 62.21875 -28.140625 C 62.144531 -27.679688 62.039062 -27.207031 61.90625 -26.71875 L 62.328125 -33.171875 Z M 61.59375 -21.09375 C 61.59375 -20.457031 61.570312 -19.820312 61.53125 -19.1875 C 61.5 -18.550781 61.445312 -17.953125 61.375 -17.390625 C 61.375 -18.796875 61.410156 -20.222656 61.484375 -21.671875 C 61.554688 -23.117188 61.660156 -24.445312 61.796875 -25.65625 Z M 51.09375 -14.515625 C 51.164062 -14.804688 51.203125 -15.09375 51.203125 -15.375 C 51.203125 -15.65625 51.269531 -15.972656 51.40625 -16.328125 L 51.40625 -17.484375 C 51.332031 -17.347656 51.296875 -17.222656 51.296875 -17.109375 C 51.296875 -17.003906 51.265625 -16.921875 51.203125 -16.859375 L 51.09375 -16.640625 Z M 50.78125 -9.4375 C 50.84375 -10.070312 50.910156 -10.722656 50.984375 -11.390625 C 51.054688 -12.066406 51.09375 -12.757812 51.09375 -13.46875 L 51.09375 -13.78125 L 50.671875 -9.640625 Z M 50.78125 -9.4375 "/></g></g></g><g fill="#00bf63" fill-opacity="1"><g transform="translate(265.80035, 224.624985)"><g><path d="M 27.765625 -63.8125 C 27.835938 -63.457031 28.226562 -63.28125 28.9375 -63.28125 L 29.15625 -63.28125 C 29.570312 -63.28125 29.851562 -63.242188 30 -63.171875 C 33.675781 -62.046875 37.332031 -60.40625 40.96875 -58.25 C 44.601562 -56.09375 47.882812 -53.507812 50.8125 -50.5 C 53.75 -47.5 56.117188 -44.09375 57.921875 -40.28125 C 59.722656 -36.46875 60.625 -32.367188 60.625 -27.984375 C 60.625 -24.171875 59.882812 -20.492188 58.40625 -16.953125 C 56.925781 -13.421875 54.878906 -10.347656 52.265625 -7.734375 C 54.941406 -10.066406 57.078125 -12.984375 58.671875 -16.484375 C 60.265625 -19.984375 61.0625 -23.742188 61.0625 -27.765625 C 61.0625 -32.296875 60.101562 -36.519531 58.1875 -40.4375 C 56.28125 -44.363281 53.84375 -47.878906 50.875 -50.984375 C 47.90625 -54.097656 44.601562 -56.765625 40.96875 -58.984375 C 37.332031 -61.210938 33.78125 -62.925781 30.3125 -64.125 C 33 -64.125 35.738281 -63.523438 38.53125 -62.328125 C 41.320312 -61.128906 43.988281 -59.554688 46.53125 -57.609375 C 49.070312 -55.671875 51.421875 -53.445312 53.578125 -50.9375 C 55.734375 -48.425781 57.554688 -45.863281 59.046875 -43.25 L 58.296875 -42.1875 C 59.710938 -40.070312 60.789062 -37.773438 61.53125 -35.296875 C 62.269531 -32.828125 62.640625 -30.285156 62.640625 -27.671875 C 62.640625 -22.648438 61.5625 -18.25 59.40625 -14.46875 C 57.257812 -10.6875 54.539062 -7.539062 51.25 -5.03125 C 47.96875 -2.519531 44.363281 -0.628906 40.4375 0.640625 C 36.519531 1.910156 32.828125 2.546875 29.359375 2.546875 C 27.378906 2.546875 25.382812 2.332031 23.375 1.90625 C 21.363281 1.476562 19.332031 0.769531 17.28125 -0.21875 L 17.28125 0.421875 C 19.257812 1.554688 21.289062 2.332031 23.375 2.75 C 25.457031 3.175781 27.523438 3.390625 29.578125 3.390625 C 34.660156 3.390625 39.65625 2.273438 44.5625 0.046875 C 49.476562 -2.171875 53.632812 -5.296875 57.03125 -9.328125 C 53.78125 -5.160156 49.734375 -1.910156 44.890625 0.421875 C 40.046875 2.753906 35.007812 3.921875 29.78125 3.921875 C 24.414062 3.921875 20.070312 2.878906 16.75 0.796875 C 13.425781 -1.285156 10.828125 -3.847656 8.953125 -6.890625 C 7.078125 -9.929688 5.820312 -13.144531 5.1875 -16.53125 C 4.550781 -19.925781 4.234375 -22.96875 4.234375 -25.65625 C 4.234375 -29.257812 4.710938 -32.789062 5.671875 -36.25 C 6.628906 -39.71875 8.09375 -42.898438 10.0625 -45.796875 C 12.039062 -48.691406 14.582031 -51.179688 17.6875 -53.265625 C 20.800781 -55.347656 24.550781 -56.8125 28.9375 -57.65625 L 25.859375 -58.40625 C 24.378906 -58.757812 23.320312 -59.179688 22.6875 -59.671875 C 22.050781 -60.171875 21.734375 -60.597656 21.734375 -60.953125 C 21.734375 -61.515625 22.347656 -62.128906 23.578125 -62.796875 C 24.816406 -63.472656 26.210938 -63.8125 27.765625 -63.8125 Z M 23 -50.453125 C 24.90625 -51.160156 26.742188 -51.515625 28.515625 -51.515625 C 30.273438 -51.515625 31.632812 -51.25 32.59375 -50.71875 C 33.550781 -50.1875 34.03125 -49.640625 34.03125 -49.078125 C 34.03125 -48.722656 33.625 -48.332031 32.8125 -47.90625 C 32 -47.488281 30.972656 -46.90625 29.734375 -46.15625 C 28.492188 -45.414062 27.148438 -44.476562 25.703125 -43.34375 C 24.253906 -42.21875 22.910156 -40.789062 21.671875 -39.0625 C 20.441406 -37.332031 19.421875 -35.226562 18.609375 -32.75 C 17.796875 -30.28125 17.390625 -27.382812 17.390625 -24.0625 C 17.390625 -19.1875 18.484375 -15.507812 20.671875 -13.03125 C 22.859375 -10.5625 25.894531 -9.328125 29.78125 -9.328125 C 32.257812 -9.328125 34.785156 -9.75 37.359375 -10.59375 C 39.941406 -11.445312 42.273438 -12.648438 44.359375 -14.203125 C 46.441406 -15.753906 48.132812 -17.660156 49.4375 -19.921875 C 50.75 -22.179688 51.40625 -24.726562 51.40625 -27.5625 C 51.40625 -29.675781 51.035156 -31.789062 50.296875 -33.90625 C 49.554688 -36.03125 48.53125 -38.066406 47.21875 -40.015625 C 45.914062 -41.960938 44.363281 -43.78125 42.5625 -45.46875 C 40.757812 -47.164062 38.796875 -48.613281 36.671875 -49.8125 C 34.628906 -50.945312 32.953125 -51.8125 31.640625 -52.40625 C 30.335938 -53.007812 29.398438 -53.597656 28.828125 -54.171875 C 28.265625 -53.878906 27.46875 -53.539062 26.4375 -53.15625 C 25.414062 -52.769531 24.054688 -52.1875 22.359375 -51.40625 Z M 30.109375 -55.4375 C 33.359375 -54.375 36.46875 -52.785156 39.4375 -50.671875 C 41.976562 -48.765625 44.304688 -46.675781 46.421875 -44.40625 C 44.378906 -46.8125 42.15625 -48.96875 39.75 -50.875 C 36.988281 -53.132812 33.914062 -54.90625 30.53125 -56.1875 Z M 50.671875 -19.296875 C 49.609375 -17.035156 48.125 -15.019531 46.21875 -13.25 C 47.488281 -14.09375 48.566406 -15.113281 49.453125 -16.3125 C 50.335938 -17.519531 51.0625 -18.722656 51.625 -19.921875 C 52.1875 -21.128906 52.609375 -22.226562 52.890625 -23.21875 C 53.109375 -24.132812 53.285156 -24.875 53.421875 -25.4375 C 52.648438 -23.601562 51.734375 -21.554688 50.671875 -19.296875 Z M 57.765625 -10.171875 C 57.691406 -10.035156 57.585938 -9.894531 57.453125 -9.75 C 57.378906 -9.675781 57.304688 -9.640625 57.234375 -9.640625 C 57.171875 -9.640625 57.347656 -10.007812 57.765625 -10.75 C 58.191406 -11.5 58.703125 -12.382812 59.296875 -13.40625 C 59.898438 -14.4375 60.488281 -15.515625 61.0625 -16.640625 C 61.550781 -17.484375 61.898438 -18.226562 62.109375 -18.875 C 61.117188 -15.832031 59.671875 -12.929688 57.765625 -10.171875 Z M 63.703125 -27.34375 C 63.703125 -26.21875 63.628906 -25.101562 63.484375 -24 C 63.347656 -22.90625 63.101562 -21.898438 62.75 -20.984375 C 63.25 -22.753906 63.5 -24.734375 63.5 -26.921875 C 63.5 -28.546875 63.351562 -30.132812 63.0625 -31.6875 C 62.851562 -33.03125 62.570312 -34.335938 62.21875 -35.609375 C 62.570312 -34.335938 62.890625 -33.066406 63.171875 -31.796875 C 63.523438 -30.390625 63.703125 -28.90625 63.703125 -27.34375 Z M 30.109375 -57.140625 L 29.15625 -57.5625 C 29.082031 -57.414062 28.972656 -57.269531 28.828125 -57.125 C 28.691406 -56.988281 28.625 -56.847656 28.625 -56.703125 C 28.625 -56.566406 28.710938 -56.375 28.890625 -56.125 C 29.066406 -55.875 29.222656 -55.679688 29.359375 -55.546875 Z M 47.0625 -43.671875 C 46.851562 -43.953125 46.640625 -44.195312 46.421875 -44.40625 C 46.640625 -44.125 46.851562 -43.878906 47.0625 -43.671875 Z M 62.109375 -18.875 C 62.179688 -19.007812 62.21875 -19.148438 62.21875 -19.296875 C 62.21875 -19.148438 62.179688 -19.007812 62.109375 -18.875 Z M 62.328125 -19.5 C 62.253906 -19.425781 62.21875 -19.359375 62.21875 -19.296875 C 62.21875 -19.359375 62.253906 -19.425781 62.328125 -19.5 Z M 62.328125 -19.5 "/></g></g></g></svg>